<?xml version="1.0" encoding="utf-8"?>
<!-- Generator: Adobe Illustrator 25.4.1, SVG Export Plug-In . SVG Version: 6.00 Build 0)  -->
<svg version="1.1" id="Ebene_1" xmlns="http://www.w3.org/2000/svg" xmlns:xlink="http://www.w3.org/1999/xlink" x="0px" y="0px"
	 viewBox="0 0 411.2 107.6" style="enable-background:new 0 0 411.2 107.6;" xml:space="preserve">
<style type="text/css">
	.st0{fill:none;}
	.st1{fill:#2A67FF;}
	.st2{enable-background:new    ;}
</style>
<g transform="translate(-0.10256410256410256, -0.10256410256410256) scale(0.10256410256410256)">
	<g>
		<rect x="-21.5" y="45.2" class="st0" width="978" height="978"/>
	</g>
	<g>
		<g>
			<g>
				<path class="st1" d="M289.2,267.1c-43.2,1-80.1,29.3-110.8,84.7c-32.2,62.4-48.1,131.8-47.8,208.2c0.5,9.2,1.6,10,3.1,2.6
					c12.9-56.2,26.4-100,40.6-131.8c13.8-31.9,29.1-58.1,45.9-78.3c38.5-44.7,71.8-52,100-21.7c30.9,35.7,47.3,95.8,49.3,180.3
					c-1.6,113.5-16.6,199.3-44.7,257.7c-35.3,71-71.5,94.7-108.2,70.8C166.5,799.7,138.5,711,133,574.1c-1.9-4.7-3.7-1.3-5.2,10.5
					c-2.6,14.2-4.5,29.8-5.6,46.4c-4.2,74.4,5.7,137.5,29.5,189.3c24.3,49.2,56.8,74.1,97.4,75c43.8-0.7,83.6-29.3,119.6-86
					c35.9-59.2,59.1-131.4,69.2-216.8c3.7-90.8-8.5-168.2-36.7-232c-28.5-60.7-65.7-91.9-111.4-93.6"/>
			</g>
			<g>
				<path class="st1" d="M609.6,233.4c-22.4-36.7-65.4-54.7-128.8-53.6c-70,3.4-138.2,24.3-204.3,62.7c-7.7,5-7.9,6.4-0.8,4
					c55.2-16.9,99.9-27.2,134.3-30.8c34.6-4,64.7-3.9,90.7,0.5c58,11,81,36.2,68.8,75.8c-15.5,44.6-59.4,88.9-131.5,133
					c-99.2,55.4-181,85.4-245.5,90.1c-79.2,5-117.7-14.5-115.4-58.4c9.8-63.6,72.6-131.9,188.4-205.4c3.1-4-0.8-3.7-11.6,0.8
					c-13.7,4.8-28,11-43,18.4c-66.5,33.6-116.4,73.8-149.3,120.3C31.5,436.5,26,477.2,45.5,512.6c22.4,37.5,67.1,57.7,134.3,60.6
					c69.2,1.6,143.3-14.5,222.3-48.5c80.5-42.2,141.4-91.4,182.5-147.6c38.5-55,46.8-102.9,25.4-143.3"/>
			</g>
			<g>
				<path class="st1" d="M799.1,494.1c20.6-37.9,14.8-84-18-138.3c-38-59.1-90.1-107.5-156.5-145.4c-8.2-4.2-9.5-3.7-3.9,1.3
					c42.2,39.3,73.4,73,93.9,100.9c20.8,28,35.8,54.2,44.9,78.9c19.5,55.7,9,88.2-31.2,97.4c-46.4,8.9-106.6-6.9-180.8-47.3
					C450.1,383.1,383.1,327.3,346.6,274c-43.9-66.2-46.2-109.2-7.1-129.1c59.7-23.4,150.3-3.2,271.8,60.5c5,0.5,2.9-2.6-6.6-9.6
					c-11-9.5-23.5-18.8-37.5-28.2c-62.3-40.9-121.9-63.8-178.7-69.1c-54.7-3.5-92.6,12.1-113.7,46.8
					c-21.3,38.2-16.4,87.1,14.6,146.5c33.3,60.7,84.3,116.9,153.1,168.3c76.8,48.6,149.9,76.8,219.1,84.2
					c66.8,5.7,112.5-10.9,136.8-49.7"/>
			</g>
			<g>
				<path class="st1" d="M668.2,788.4c43.2-1,80.1-29.3,110.8-84.7c32.2-62.4,48.1-131.8,47.8-208.2c-0.5-9.2-1.6-10-3.1-2.6
					c-12.9,56.2-26.4,100-40.6,131.8c-13.8,31.9-29.1,58.1-45.9,78.3c-38.5,44.7-71.8,52-100,21.7c-30.9-35.7-47.3-95.8-49.3-180.3
					c1.6-113.5,16.6-199.3,44.7-257.7c35.3-71,71.5-94.7,108.2-70.8c50.2,39.9,78.1,128.6,83.6,265.5c1.9,4.7,3.7,1.3,5.2-10.5
					c2.6-14.2,4.5-29.8,5.6-46.4c4.2-74.4-5.7-137.5-29.5-189.3c-24.3-49.2-56.8-74.1-97.4-75c-43.8,0.7-83.6,29.3-119.6,86
					c-35.9,59.2-59.1,131.4-69.2,216.8c-3.7,90.8,8.5,168.2,36.7,232c28.5,60.7,65.7,91.9,111.4,93.6"/>
			</g>
			<g>
				<path class="st1" d="M158.2,561.5c-20.6,37.9-14.8,84,18,138.3c38,59.1,90.1,107.5,156.5,145.4c8.2,4.2,9.5,3.7,3.9-1.3
					c-42.2-39.3-73.4-73-93.9-100.9c-20.8-28-35.8-54.2-44.9-78.9c-19.5-55.7-9-88.2,31.2-97.4c46.4-8.9,106.6,6.9,180.8,47.3
					c97.4,58.3,164.4,114.1,200.9,167.4c43.9,66.2,46.2,109.2,7.1,129.1c-59.7,23.6-150.3,3.4-271.7-60.3c-5-0.5-2.9,2.6,6.6,9.6
					c11,9.5,23.5,18.8,37.5,28.2c62.3,40.9,121.9,63.8,178.7,69.1c54.7,3.5,92.6-12.1,113.7-46.8C703.9,872.3,699,823.5,668,764
					c-33.3-60.7-84.3-116.9-153.1-168.3c-76.8-48.6-149.9-76.8-219.1-84.2c-66.8-5.7-112.5,10.9-136.8,49.7"/>
			</g>
			<g>
				<path class="st1" d="M347.7,822.2c22.4,36.7,65.4,54.7,128.8,53.6c70-3.4,138.2-24.3,204.3-62.7c7.7-5,7.9-6.4,0.8-4
					c-55.2,16.9-99.9,27.2-134.3,30.8c-34.6,4-64.7,3.9-90.7-0.5c-58-11-81-36.2-68.8-75.8c15.5-44.6,59.4-88.9,131.5-133
					c99.2-55.4,181-85.4,245.5-90.1c79.2-5,117.7,14.5,115.4,58.4c-9.6,63.4-72.3,131.8-188.2,205.2c-3.1,4,0.8,3.7,11.6-0.8
					c13.7-4.8,28-11,43-18.4c66.5-33.6,116.4-73.7,149.2-120.2c30.4-45.7,35.8-86.4,16.3-121.7c-22.4-37.5-67.1-57.7-134.1-60.6
					c-69.2-1.6-143.3,14.5-222.3,48.5C474.9,573,414,622.1,373,678.4c-38.5,55-46.8,102.9-25.4,143.3"/>
			</g>
		</g>
	</g>
</g>
<rect x="122" y="26.1" class="st0" width="293.1" height="57.2"/>
<g class="st2">
	<path class="st1" d="M109.8,40.1c1.7-0.4,3.9-0.9,6.7-1.3c2.8-0.5,5.9-0.7,9.6-0.7c2.6,0,4.8,0.4,6.6,1.1c1.8,0.7,3.3,1.7,4.5,3.1
		c0.4-0.3,0.9-0.6,1.7-1.1c0.8-0.5,1.8-0.9,2.9-1.4c1.2-0.4,2.4-0.8,3.9-1.2c1.4-0.3,2.9-0.5,4.6-0.5c3.1,0,5.7,0.5,7.7,1.4
		c2,0.9,3.6,2.2,4.7,3.9c1.1,1.7,1.9,3.7,2.3,6c0.4,2.3,0.6,4.8,0.6,7.6v23h-7.3V58.4c0-2.4-0.1-4.5-0.4-6.2s-0.7-3.2-1.3-4.3
		c-0.7-1.2-1.5-2-2.7-2.6c-1.1-0.6-2.6-0.8-4.4-0.8c-2.5,0-4.5,0.3-6.1,1c-1.6,0.7-2.7,1.2-3.3,1.8c0.4,1.4,0.7,2.9,0.9,4.5
		c0.2,1.6,0.3,3.3,0.3,5.1v23H134V58.4c0-2.4-0.1-4.5-0.4-6.2c-0.3-1.7-0.7-3.2-1.4-4.3c-0.7-1.2-1.5-2-2.7-2.6
		c-1.1-0.6-2.6-0.8-4.3-0.8c-0.7,0-1.5,0-2.4,0.1c-0.8,0.1-1.6,0.1-2.4,0.2c-0.8,0.1-1.5,0.2-2.1,0.3c-0.6,0.1-1.1,0.2-1.3,0.2v34.6
		h-7.3V40.1z"/>
	<path class="st1" d="M176.9,59.4c0-3.6,0.5-6.8,1.6-9.5c1-2.7,2.4-4.9,4.2-6.7c1.7-1.8,3.7-3.1,6-4c2.3-0.9,4.6-1.3,6.9-1.3
		c5.5,0,9.7,1.7,12.7,5.2c2.9,3.4,4.4,8.7,4.4,15.7c0,0.3,0,0.7,0,1.2c0,0.5,0,1-0.1,1.4h-28c0.3,4.3,1.5,7.5,3.7,9.7
		c2.2,2.2,5.5,3.3,10.1,3.3c2.6,0,4.7-0.2,6.5-0.7c1.8-0.4,3.1-0.9,4-1.3l1,6.1c-0.9,0.5-2.5,1-4.7,1.5c-2.2,0.5-4.8,0.8-7.6,0.8
		c-3.6,0-6.7-0.5-9.3-1.6c-2.6-1.1-4.7-2.6-6.4-4.5c-1.7-1.9-2.9-4.1-3.7-6.7C177.3,65.4,176.9,62.5,176.9,59.4z M205.1,55.4
		c0.1-3.3-0.8-6-2.5-8.2c-1.7-2.1-4.1-3.2-7-3.2c-1.7,0-3.2,0.3-4.4,1c-1.3,0.7-2.4,1.5-3.3,2.6c-0.9,1.1-1.6,2.3-2.1,3.6
		c-0.5,1.4-0.8,2.8-1,4.2H205.1z"/>
	<path class="st1" d="M249.7,20l7.3-1.3v59.9c-1.7,0.5-3.8,0.9-6.5,1.4c-2.6,0.5-5.6,0.7-9.1,0.7c-3.2,0-6-0.5-8.5-1.5
		c-2.5-1-4.7-2.4-6.5-4.3c-1.8-1.8-3.2-4.1-4.1-6.7c-1-2.7-1.5-5.6-1.5-8.9c0-3.2,0.4-6,1.2-8.7c0.8-2.6,2-4.9,3.6-6.8
		s3.5-3.4,5.8-4.4c2.3-1,4.9-1.6,7.8-1.6c2.4,0,4.4,0.3,6.3,0.9c1.8,0.6,3.2,1.2,4.1,1.8V20z M249.7,47.5c-0.9-0.7-2.2-1.4-3.9-2.1
		c-1.7-0.7-3.5-1-5.5-1c-2.1,0-3.9,0.4-5.4,1.1c-1.5,0.8-2.7,1.8-3.7,3.2s-1.6,2.9-2,4.8c-0.4,1.8-0.6,3.8-0.6,5.9
		c0,4.8,1.2,8.5,3.5,11.1c2.4,2.6,5.5,3.9,9.5,3.9c2,0,3.7-0.1,5-0.3c1.3-0.2,2.4-0.4,3.1-0.6V47.5z"/>
	<path class="st1" d="M274.8,31.5c-1.3,0-2.4-0.4-3.3-1.3c-0.9-0.9-1.4-2-1.4-3.5c0-1.5,0.5-2.6,1.4-3.5c0.9-0.9,2-1.3,3.3-1.3
		c1.3,0,2.4,0.4,3.3,1.3c0.9,0.9,1.4,2,1.4,3.5c0,1.5-0.5,2.6-1.4,3.5C277.3,31,276.1,31.5,274.8,31.5z M278.5,79.8h-7.3v-41h7.3
		V79.8z"/>
	<path class="st1" d="M309.2,24.7c7.7,0,13.6,1.5,17.7,4.4c4.1,2.9,6.2,7.3,6.2,13c0,3.2-0.6,5.8-1.7,8.1c-1.1,2.2-2.8,4-4.9,5.4
		c-2.1,1.4-4.7,2.4-7.8,3c-3,0.6-6.5,0.9-10.3,0.9h-6.1v20.2h-7.6V26c2.2-0.5,4.6-0.9,7.2-1.1C304.6,24.8,307,24.7,309.2,24.7z
		 M309.9,31.4c-3.3,0-5.7,0.1-7.5,0.2v21.4h5.7c2.6,0,5-0.2,7.1-0.5c2.1-0.3,3.9-0.9,5.3-1.7c1.4-0.8,2.6-1.9,3.3-3.3
		c0.8-1.4,1.2-3.2,1.2-5.4c0-2.1-0.4-3.8-1.2-5.2c-0.8-1.4-1.9-2.5-3.3-3.3c-1.4-0.8-3-1.4-4.8-1.7
		C313.9,31.6,311.9,31.4,309.9,31.4z"/>
	<path class="st1" d="M355.5,37.9c2.9,0,5.4,0.4,7.4,1.1c2,0.8,3.6,1.8,4.9,3.2c1.2,1.4,2.1,3,2.6,5c0.5,1.9,0.8,4,0.8,6.3v25.6
		c-0.6,0.1-1.5,0.2-2.6,0.4c-1.1,0.2-2.4,0.4-3.8,0.5c-1.4,0.2-3,0.3-4.6,0.4s-3.3,0.2-4.9,0.2c-2.3,0-4.4-0.2-6.4-0.7
		c-1.9-0.5-3.6-1.2-5-2.2c-1.4-1-2.5-2.4-3.3-4.1c-0.8-1.7-1.2-3.7-1.2-6.1c0-2.3,0.5-4.2,1.4-5.8c0.9-1.6,2.2-2.9,3.7-3.9
		c1.6-1,3.4-1.7,5.5-2.2c2.1-0.5,4.3-0.7,6.6-0.7c0.7,0,1.5,0,2.3,0.1c0.8,0.1,1.5,0.2,2.2,0.3c0.7,0.1,1.3,0.2,1.9,0.4
		c0.5,0.1,0.9,0.2,1.1,0.2v-2c0-1.2-0.1-2.4-0.4-3.6c-0.3-1.2-0.7-2.2-1.4-3.2c-0.7-0.9-1.6-1.7-2.8-2.2c-1.2-0.6-2.7-0.8-4.6-0.8
		c-2.4,0-4.5,0.2-6.3,0.5c-1.8,0.3-3.2,0.7-4.1,1.1l-0.9-6.1c0.9-0.4,2.5-0.8,4.7-1.2C350.5,38.1,352.9,37.9,355.5,37.9z
		 M356.1,74.6c1.7,0,3.3,0,4.6-0.1c1.3-0.1,2.5-0.2,3.3-0.4V61.8c-0.5-0.3-1.4-0.5-2.6-0.7c-1.2-0.2-2.6-0.3-4.3-0.3
		c-1.1,0-2.3,0.1-3.5,0.2c-1.2,0.2-2.4,0.5-3.4,1c-1,0.5-1.9,1.2-2.6,2c-0.7,0.9-1,2-1,3.4c0,2.6,0.8,4.4,2.5,5.5
		C350.9,74,353.2,74.6,356.1,74.6z"/>
	<path class="st1" d="M390.2,38.9h15.5V45h-15.5v18.9c0,2,0.2,3.7,0.5,5.1c0.3,1.3,0.8,2.4,1.4,3.2c0.6,0.8,1.4,1.3,2.4,1.6
		c0.9,0.3,2,0.5,3.3,0.5c2.2,0,4-0.2,5.3-0.7c1.3-0.5,2.3-0.9,2.8-1.1l1.4,6.1c-0.7,0.4-2,0.8-3.9,1.4c-1.8,0.6-3.9,0.8-6.3,0.8
		c-2.8,0-5.1-0.4-6.9-1.1c-1.8-0.7-3.3-1.8-4.4-3.2c-1.1-1.4-1.9-3.2-2.3-5.2c-0.4-2.1-0.7-4.5-0.7-7.2V27.5l7.3-1.3V38.9z"/>
</g>
</svg>
